<svg
        xmlns="http://www.w3.org/2000/svg"
        xmlns:xlink="http://www.w3.org/1999/xlink"
        width="1156.5px" height="303.5px">
    <path fill-rule="evenodd" stroke="rgb(0, 0, 0)" stroke-width="0px" stroke-linecap="butt" stroke-linejoin="miter"
          fill="rgb(28, 119, 163)"
          d="M884.822,1.18 C974.618,1.18 1064.440,1.18 1154.236,1.18 C1154.236,2.744 1154.236,4.472 1154.236,6.199 C1133.982,19.492 1127.917,46.990 1110.715,63.190 C1096.395,76.675 1057.259,58.777 1038.181,68.371 C980.159,145.388 922.120,222.428 864.98,299.445 C832.324,299.791 800.541,300.136 768.767,300.481 C771.953,282.981 791.271,270.344 800.889,257.997 C849.241,195.831 897.607,133.646 945.958,71.480 C945.613,70.444 945.267,69.407 944.922,68.371 C905.205,68.371 865.475,68.371 825.758,68.371 C825.758,66.644 825.758,64.917 825.758,63.190 C844.924,44.517 859.730,13.436 884.822,1.18 Z"/>
    <path fill-rule="evenodd" stroke="rgb(0, 0, 0)" stroke-width="0px" stroke-linecap="butt" stroke-linejoin="miter"
          fill="rgb(250, 187, 32)"
          d="M543.341,182.521 C543.137,166.756 542.423,147.807 545.358,135.133 C575.942,139.820 611.26,132.494 601.820,96.819 C599.468,94.131 597.115,91.442 594.763,88.753 C589.193,85.520 532.205,77.516 524.185,84.720 C523.513,84.720 522.840,84.720 522.168,84.720 C521.832,156.971 521.496,229.244 521.160,301.495 C485.874,301.495 450.578,301.495 415.293,301.495 C415.293,229.244 415.293,156.971 415.293,84.720 C419.366,57.439 409.716,28.244 416.301,3.52 C522.604,1.16 652.513,-10.165 697.605,53.464 C727.826,96.111 704.40,166.420 666.349,182.521 C625.350,182.521 584.340,182.521 543.341,182.521 Z"/>
    <path fill-rule="evenodd" stroke="rgb(0, 0, 0)" stroke-width="0px" stroke-linecap="butt" stroke-linejoin="miter"
          fill="rgb(114, 116, 113)"
          d="M6.914,2.246 C66.521,2.246 126.147,2.246 185.754,2.246 C211.651,2.245 244.654,-1.607 267.46,4.278 C295.136,11.663 318.490,32.75 330.46,56.101 C338.866,74.437 339.988,103.857 333.95,124.183 C305.261,206.259 224.141,192.155 117.673,191.248 C107.851,227.826 98.27,264.414 88.205,300.991 C59.417,300.991 30.621,300.991 1.833,300.991 C1.833,300.653 1.833,300.314 1.833,299.975 C18.90,241.384 34.351,182.775 50.608,124.183 C102.426,123.844 154.259,123.505 206.77,123.167 C229.468,123.172 256.102,126.625 266.30,113.5 C270.564,106.784 272.156,96.733 269.78,88.618 C259.393,63.88 226.99,69.311 191.851,69.311 C177.288,69.650 162.720,69.989 148.157,70.327 C149.173,71.343 150.190,72.360 151.206,73.376 C163.59,86.923 174.917,100.474 186.771,114.21 C186.771,114.360 186.771,114.699 186.771,115.38 C155.273,115.38 123.767,115.38 92.270,115.38 C64.953,78.524 25.701,47.48 6.914,2.246 Z"/>
</svg>